<?xml version="1.0" standalone="no"?>
<!DOCTYPE svg PUBLIC "-//W3C//DTD SVG 20010904//EN"
 "http://www.w3.org/TR/2001/REC-SVG-20010904/DTD/svg10.dtd">
<svg version="1.0" xmlns="http://www.w3.org/2000/svg"
 width="262.000000pt" height="262.000000pt" viewBox="0 0 262.000000 262.000000"
 preserveAspectRatio="xMidYMid meet">
<metadata>
Created by potrace 1.11, written by Peter Selinger 2001-2013
</metadata>
<g transform="translate(0.000000,262.000000) scale(0.100000,-0.100000)"
fill="#000000" stroke="none">
<path d="M1489 2591 c-31 -31 -38 -75 -19 -111 6 -11 43 -40 83 -66 291 -188
530 -497 637 -823 26 -81 50 -116 50 -73 0 37 -29 173 -56 261 -52 174 -183
413 -307 565 -64 77 -196 208 -249 246 -55 40 -100 40 -139 1z"/>
<path d="M983 2450 c-44 -26 -67 -73 -60 -123 11 -79 28 -90 242 -157 326
-101 634 -323 809 -585 83 -122 176 -325 176 -380 0 -21 30 -31 41 -14 17 27
-17 174 -71 314 -130 331 -390 621 -720 802 -168 93 -323 163 -358 163 -15 0
-41 -9 -59 -20z"/>
<path d="M553 2076 c-68 -31 -87 -140 -34 -197 24 -26 59 -36 147 -43 96 -7
266 -37 349 -61 l60 -18 -86 -27 c-99 -31 -197 -82 -279 -145 -62 -47 -150
-140 -151 -159 0 -6 -3 -22 -5 -36 -7 -35 22 -93 56 -114 39 -22 93 -23 125
-2 15 10 50 41 80 69 66 65 160 121 250 150 57 18 93 22 190 22 104 -1 130 -4
198 -28 447 -156 578 -713 246 -1046 -278 -278 -736 -239 -963 82 -44 63 -90
166 -101 227 -3 18 -8 37 -11 42 -3 4 -5 47 -5 95 0 101 -16 146 -62 170 -47
24 -112 13 -151 -26 l-31 -31 0 -118 c0 -130 7 -178 36 -267 63 -190 187 -352
354 -464 70 -46 195 -105 245 -115 14 -2 48 -10 75 -16 71 -18 266 -16 353 3
82 18 205 68 289 119 66 39 206 173 252 241 138 204 185 445 136 697 -18 95
-83 238 -149 328 -118 162 -209 255 -354 359 -199 143 -526 270 -767 299 -22
3 -49 7 -60 9 -11 2 -61 7 -110 10 -67 4 -98 2 -122 -9z"/>
</g>
</svg>
