<?xml version="1.0" encoding="UTF-8"?>
<svg width="24px" height="24px" viewBox="0 0 24 24" version="1.1" xmlns="http://www.w3.org/2000/svg" xmlns:xlink="http://www.w3.org/1999/xlink">
    <!-- Generator: Sketch 48.2 (47327) - http://www.bohemiancoding.com/sketch -->
    <title>Sundown icon p3</title>
    <desc>Created with Sketch.</desc>
    <defs>
        <linearGradient x1="-13.453988%" y1="-114.188334%" x2="112.497045%" y2="213.173838%" id="linearGradient-1">
            <stop stop-color="#F0864E" offset="0%"></stop>
            <stop stop-color="#E84B5E" offset="100%"></stop>
        </linearGradient>
    </defs>
    <g id="Symbol/Evening" stroke="none" stroke-width="1" fill="none" fill-rule="evenodd" transform="translate(-16.000000, 0.000000)">
        <g id="Sundown-icon-p3" transform="translate(16.000000, 0.000000)" fill="url(#linearGradient-1)">
            <path d="M6.054525,14.5248 C6.631275,11.7829818 9.127275,9.72043636 12.124275,9.72043636 C15.121275,9.72043636 17.617275,11.7829818 18.192525,14.5248 L20.669025,14.5248 C20.063025,10.4615273 16.481775,7.31825455 12.124275,7.31825455 C7.767525,7.31825455 4.185525,10.4615273 3.578775,14.5248 L6.054525,14.5248 Z" id="Fill-106"></path>
            <path d="M12.124125,4.91541818 C12.808125,4.91541818 13.362375,4.37796364 13.362375,3.71469091 L13.362375,1.31178182 C13.362375,0.649236364 12.808125,0.111054545 12.124125,0.111054545 C11.440125,0.111054545 10.885875,0.649236364 10.885875,1.31178182 L10.885875,3.71469091 C10.885875,4.37796364 11.440125,4.91541818 12.124125,4.91541818" id="Fill-108"></path>
            <path d="M23.509575,4.68392727 C23.025075,4.21483636 22.242075,4.21483636 21.757575,4.68392727 L20.006325,6.38283636 C19.522575,6.8512 19.522575,7.61192727 20.006325,8.08101818 C20.490825,8.55010909 21.274575,8.55010909 21.757575,8.08101818 L23.509575,6.38283636 C23.994075,5.91301818 23.994075,5.15374545 23.509575,4.68392727" id="Fill-110"></path>
            <path d="M4.24035,6.38276364 L2.48835,4.68385455 C2.00535,4.21549091 1.2216,4.21549091 0.7371,4.68385455 C0.25335,5.15367273 0.25335,5.91294545 0.7371,6.38276364 L2.48835,8.08094545 C2.97285,8.55003636 3.75585,8.55003636 4.24035,8.08094545 C4.72485,7.61185455 4.72485,6.85185455 4.24035,6.38276364" id="Fill-112"></path>
            <polygon id="Fill-114" points="8.89635 18.3195636 12.1236 23.6301091 15.34935 18.3195636 13.36185 18.3195636 13.36185 13.7552 10.8846 13.7552 10.8846 18.3195636"></polygon>
        </g>
    </g>
</svg>