<?xml version="1.0" encoding="UTF-8"?>
<svg width="24px" height="24px" viewBox="0 0 24 24" version="1.1" xmlns="http://www.w3.org/2000/svg" xmlns:xlink="http://www.w3.org/1999/xlink">
    <!-- Generator: Sketch 48.2 (47327) - http://www.bohemiancoding.com/sketch -->
    <title>Fill 66</title>
    <desc>Created with Sketch.</desc>
    <defs>
        <linearGradient x1="0%" y1="0%" x2="100%" y2="100%" id="linearGradient-1">
            <stop stop-color="#F0864E" offset="0%"></stop>
            <stop stop-color="#E84B5E" offset="100%"></stop>
        </linearGradient>
    </defs>
    <g id="Symbol/Morning" stroke="none" stroke-width="1" fill="none" fill-rule="evenodd" transform="translate(-9.000000, 0.000000)">
        <path d="M22.0909091,19.6363636 L22.0909091,24 L19.9090909,24 L19.9090909,19.6363636 L17.7272727,19.6363636 L21,14.1818182 L24.2727273,19.6363636 L22.0909091,19.6363636 Z M21,4.36363636 C20.39739,4.36363636 19.9090909,3.87482454 19.9090909,3.27305755 L19.9090909,1.09057881 C19.9090909,0.488811824 20.39739,0 21,0 C21.60261,0 22.0909091,0.488811824 22.0909091,1.09057881 L22.0909091,3.27305755 C22.0909091,3.87482454 21.60261,4.36363636 21,4.36363636 Z M14.8012503,13.0909091 L12.2727273,13.0909091 C12.8924107,9.40075222 16.5507646,6.54545455 21.000383,6.54545455 C25.4507674,6.54545455 29.1083552,9.40075222 29.7272727,13.0909091 L27.1979837,13.0909091 C26.6112377,10.6008623 24.061267,8.72771305 21.000383,8.72771305 C17.940265,8.72771305 15.3902943,10.6008623 14.8012503,13.0909091 Z M32.6250952,4.73854115 C33.1249683,5.2384142 33.1249683,6.04625857 32.6250952,6.54613162 L30.8175047,8.35294829 C30.3191793,8.85204754 29.5105611,8.85204754 29.0106881,8.35294829 C28.5115888,7.85307524 28.5115888,7.04445707 29.0106881,6.54613162 L30.8175047,4.73854115 C31.3173778,4.2386681 32.1252222,4.2386681 32.6250952,4.73854115 Z M12.9887316,6.5458415 C13.4886046,7.04500713 13.4886046,7.85295896 12.9887316,8.3528985 C12.4888585,8.85206414 11.6810142,8.85206414 11.1819149,8.3528985 L9.37432444,6.5458415 C8.87522519,6.04590196 8.87522519,5.23795013 9.37432444,4.73801059 C9.87419749,4.23884495 10.6828157,4.23884495 11.1819149,4.73801059 L12.9887316,6.5458415 Z" id="Fill-66" fill="url(#linearGradient-1)"></path>
    </g>
</svg>