<?xml version="1.0" encoding="utf-8"?>
<!-- Generator: Adobe Illustrator 21.1.0, SVG Export Plug-In . SVG Version: 6.00 Build 0)  -->
<svg version="1.1" id="Layer_1" xmlns="http://www.w3.org/2000/svg" xmlns:xlink="http://www.w3.org/1999/xlink" x="0px" y="0px"
	 viewBox="0 0 260 63" style="enable-background:new 0 0 260 63;" xml:space="preserve">
<style type="text/css">
	.st0{fill:#FFFFFF;}
	.st1{fill:url(#SVGID_1_);}
	.st2{fill:url(#SVGID_2_);}
	.st3{fill:url(#SVGID_3_);}
</style>
<g>
	<g>
		<path class="st0" d="M61.1,15H78c10,0,16.3,5.7,16.3,14.3v0.1c0,9.6-7.7,14.6-17.2,14.6h-8.5v13.8h-7.5V15z M77.4,37.3
			c5.7,0,9.3-3.2,9.3-7.7v-0.1c0-5-3.6-7.7-9.3-7.7h-8.8v15.4H77.4z"/>
		<path class="st0" d="M96.9,25.6h7.4v7.3c2-4.8,5.8-8.1,11.5-7.9v7.8h-0.4c-6.5,0-11,4.2-11,12.8v12.3h-7.4V25.6z"/>
		<path class="st0" d="M115.7,41.9v-0.1c0-9.3,7.4-16.9,17.3-16.9c9.9,0,17.2,7.5,17.2,16.8v0.1c0,9.2-7.4,16.8-17.3,16.8
			C123,58.7,115.7,51.1,115.7,41.9z M142.8,41.9v-0.1c0-5.7-4.1-10.4-9.9-10.4c-5.9,0-9.7,4.7-9.7,10.3v0.1c0,5.6,4.1,10.4,9.9,10.4
			C139,52.2,142.8,47.5,142.8,41.9z"/>
		<path class="st0" d="M151.9,41.9v-0.1c0-9.3,7.4-16.9,17.3-16.9c9.9,0,17.2,7.5,17.2,16.8v0.1c0,9.2-7.4,16.8-17.3,16.8
			C159.2,58.7,151.9,51.1,151.9,41.9z M179,41.9v-0.1c0-5.7-4.1-10.4-9.9-10.4c-5.9,0-9.7,4.7-9.7,10.3v0.1c0,5.6,4.1,10.4,9.9,10.4
			C175.2,52.2,179,47.5,179,41.9z"/>
		<path class="st0" d="M190.9,32h-4.1v-6.2h4.1v-2.3c0-3.6,0.9-6.3,2.6-8s4.1-2.6,7.3-2.6c2.6,0,4.3,0.4,6,0.9v6.2
			c-1.5-0.5-2.8-0.8-4.4-0.8c-2.8,0-4.3,1.5-4.3,4.9v1.8h8.6V32h-8.5v26h-7.4V32z"/>
		<path class="st0" d="M206.3,41.9v-0.1c0-9.3,6.6-16.8,15.8-16.8c10.3,0,15.5,8.1,15.5,17.4c0,0.7-0.1,1.3-0.1,2.1h-23.8
			c0.8,5.3,4.5,8.2,9.3,8.2c3.6,0,6.2-1.3,8.8-3.9l4.4,3.9c-3.1,3.7-7.3,6.1-13.2,6.1C213.5,58.7,206.3,51.9,206.3,41.9z
			 M230.2,39.5c-0.5-4.8-3.3-8.5-8.2-8.5c-4.5,0-7.7,3.5-8.4,8.5H230.2z"/>
		<path class="st0" d="M241.1,25.6h7.4v7.3c2-4.8,5.8-8.1,11.5-7.9v7.8h-0.4c-6.5,0-11,4.2-11,12.8v12.3h-7.4V25.6z"/>
	</g>
	<g>
		<linearGradient id="SVGID_1_" gradientUnits="userSpaceOnUse" x1="0.3572" y1="37.7609" x2="46.758" y2="37.7609">
			<stop  offset="0" style="stop-color:#FF8949"/>
			<stop  offset="1" style="stop-color:#FF495C"/>
		</linearGradient>
		<path class="st1" d="M37.6,28.2c0-0.1-0.1-0.1-0.1-0.2c-0.2-0.4-2.5-3.8-7.5-7.4c-4.6-3.3-12.5-7.3-24.1-7.9c0,0-0.1,0-0.1,0l0,0
			c-1.6,0-2.9,1.2-3,2.8c0,0.8,0.2,1.5,0.8,2.1c0.5,0.6,1.3,0.9,2,1c4.5,0.2,8.4,1,11.6,2.1c-4.7,0.9-8.9,3.3-12.1,7
			c-1.1,1.2-1,3,0.2,4.1c0.6,0.5,1.3,0.8,2,0.8c0.9,0,1.7-0.4,2.2-1c2.9-3.4,7.1-5.3,11.6-5.3c1.1,0,2.2,0.1,3.3,0.4
			c4.1,0.9,7.5,3.4,9.7,6.9c2.2,3.6,2.8,7.8,1.8,11.8c-0.8,3.2-2.8,6.2-5.5,8.2c-2.7,2-6,3.2-9.3,3.2c-0.8,0-1.5-0.1-2.3-0.2
			C11,55.5,5.3,48.3,6,40.4c0.1-1.4-0.8-2.7-2.2-3.1c-0.2-0.1-0.5-0.1-0.8-0.1c-1.5,0-2.8,1.2-3,2.7c-0.4,5.3,1.1,10.5,4.4,14.7
			c3.3,4.3,8.1,7.1,13.4,7.9c1.1,0.2,2.2,0.3,3.3,0.3c4.6,0,9.2-1.6,12.9-4.4c3.7-2.9,6.4-6.9,7.6-11.4c1.5-5.6,0.6-11.5-2.4-16.4
			C38.7,29.7,38.2,28.9,37.6,28.2z"/>
		<linearGradient id="SVGID_2_" gradientUnits="userSpaceOnUse" x1="13.4749" y1="19.0912" x2="47.0087" y2="19.0912">
			<stop  offset="0" style="stop-color:#FF8949"/>
			<stop  offset="1" style="stop-color:#FF495C"/>
		</linearGradient>
		<path class="st2" d="M34.9,15.5c-0.6-0.6-1.2-1.2-1.9-1.9c-0.3-0.3-0.6-0.6-1-0.9l-1-0.8c-0.7-0.5-1.4-1.1-2.1-1.7
			c0,0-4.6-3.4-11.9-6.4c-1.5-0.6-3.3,0.4-3.8,2c-0.5,1.6,0.4,3.3,2,3.8l0.3,0.1c1.5,0.5,3,0.9,4.5,1.4l2.2,0.9l1.1,0.4
			c0.4,0.2,0.7,0.4,1.1,0.5l2.1,1.1c0.7,0.4,1.3,0.8,2,1.2l1,0.6c0.3,0.2,0.6,0.5,1,0.7c0.6,0.5,1.3,1,1.9,1.5
			c2.4,2.1,4.6,4.5,6.4,7.2c1.8,2.7,3.2,5.7,4,8.9l0,0c0.1,0.2,0.3,0.4,0.5,0.4c0.3,0,0.5-0.3,0.4-0.5c-0.4-3.5-1.5-6.7-3-9.8
			C39.3,21.1,37.3,18.1,34.9,15.5z"/>
		<linearGradient id="SVGID_3_" gradientUnits="userSpaceOnUse" x1="26.3291" y1="13.4168" x2="46.8559" y2="13.4168">
			<stop  offset="0" style="stop-color:#FF8949"/>
			<stop  offset="1" style="stop-color:#FF495C"/>
		</linearGradient>
		<path class="st3" d="M43.2,19.1c-0.4-1.2-0.9-2.4-1.4-3.5c-0.6-1.1-1.1-2.3-1.8-3.4c-1.3-2.2-2.8-4.3-4.5-6.3
			c-0.8-1-1.7-1.9-2.7-2.8c-1-0.9-1.9-1.8-3.1-2.6c-0.1-0.1-0.2-0.1-0.3-0.2c-1.1-0.6-2.5-0.2-3.1,0.9c-0.6,1.1-0.2,2.5,0.9,3.1l0,0
			c0.9,0.5,1.9,1.2,2.8,1.9c0.9,0.7,1.9,1.5,2.7,2.3c1.8,1.6,3.4,3.3,4.9,5.3c0.8,0.9,1.4,2,2.1,3c0.6,1,1.3,2.1,1.8,3.2
			c1.1,2.2,1.9,4.5,2.6,6.8l0,0c0,0.1,0.2,0.2,0.3,0.2c0.2,0,0.3-0.2,0.3-0.4C44.5,24,44,21.5,43.2,19.1z"/>
	</g>
</g>
</svg>
