<svg xmlns="http://www.w3.org/2000/svg" xmlns:xlink="http://www.w3.org/1999/xlink" viewBox="0 0 260 62.76"><defs><style>.cls-1{fill:#323945;}.cls-2{fill:url(#linear-gradient);}.cls-3{fill:url(#linear-gradient-2);}.cls-4{fill:url(#linear-gradient-3);}</style><linearGradient id="linear-gradient" x1="0.36" y1="37.76" x2="46.76" y2="37.76" gradientUnits="userSpaceOnUse"><stop offset="0" stop-color="#ff8949"/><stop offset="1" stop-color="#ff495c"/></linearGradient><linearGradient id="linear-gradient-2" x1="13.47" y1="19.09" x2="47.01" y2="19.09" xlink:href="#linear-gradient"/><linearGradient id="linear-gradient-3" x1="26.33" y1="13.42" x2="46.86" y2="13.42" xlink:href="#linear-gradient"/></defs><title>proofer-logo</title><path class="cls-1" d="M61.08,15H78c10,0,16.3,5.7,16.3,14.34v.12c0,9.62-7.72,14.64-17.16,14.64H68.61V57.93H61.08Zm16.3,22.3c5.7,0,9.25-3.19,9.25-7.66v-.12c0-5-3.61-7.66-9.25-7.66H68.61V37.34Z" transform="translate(0)"/><path class="cls-1" d="M96.87,25.58h7.41v7.29c2-4.84,5.76-8.15,11.46-7.9v7.84h-.43c-6.49,0-11,4.23-11,12.81V57.93H96.87Z" transform="translate(0)"/><path class="cls-1" d="M115.75,41.94v-.12A16.91,16.91,0,0,1,133,24.91c9.93,0,17.22,7.54,17.22,16.79v.12A16.91,16.91,0,0,1,132.9,58.66,16.73,16.73,0,0,1,115.75,41.94Zm27.08,0v-.12c0-5.7-4.1-10.42-9.93-10.42s-9.74,4.66-9.74,10.29v.12c0,5.64,4.1,10.41,9.86,10.41C139,52.23,142.83,47.51,142.83,41.94Z" transform="translate(0)"/><path class="cls-1" d="M151.95,41.94v-.12a16.91,16.91,0,0,1,17.28-16.91c9.93,0,17.22,7.54,17.22,16.79v.12a16.91,16.91,0,0,1-17.34,16.85A16.73,16.73,0,0,1,151.95,41.94Zm27.08,0v-.12c0-5.7-4.1-10.42-9.93-10.42s-9.74,4.66-9.74,10.29v.12c0,5.64,4.1,10.41,9.86,10.41C175.23,52.23,179,47.51,179,41.94Z" transform="translate(0)"/><path class="cls-1" d="M190.86,32h-4.1V25.76h4.1V23.43c0-3.61.92-6.31,2.64-8s4.1-2.57,7.29-2.57a19.85,19.85,0,0,1,6,.86v6.25a13,13,0,0,0-4.35-.8c-2.82,0-4.29,1.53-4.29,4.9v1.78h8.58V32h-8.45v26h-7.42Z" transform="translate(0)"/><path class="cls-1" d="M206.26,41.88v-.12c0-9.25,6.56-16.85,15.81-16.85,10.29,0,15.5,8.09,15.5,17.4,0,.67-.06,1.35-.12,2.08H213.67c.8,5.27,4.53,8.21,9.31,8.21,3.61,0,6.19-1.35,8.76-3.86l4.35,3.86a16.37,16.37,0,0,1-13.24,6.07C213.49,58.66,206.26,51.86,206.26,41.88Zm24-2.39C229.72,34.71,226.91,31,222,31c-4.53,0-7.72,3.49-8.39,8.52Z" transform="translate(0)"/><path class="cls-1" d="M241.13,25.58h7.41v7.29c2-4.84,5.76-8.15,11.46-7.9v7.84h-.43c-6.49,0-11,4.23-11,12.81V57.93h-7.41Z" transform="translate(0)"/><path class="cls-2" d="M37.59,28.23,37.48,28A29.42,29.42,0,0,0,30,20.64c-4.59-3.29-12.49-7.32-24.08-7.88H5.77a3,3,0,0,0-.14,5.92,43.22,43.22,0,0,1,11.61,2.11,21.18,21.18,0,0,0-12.08,7A3,3,0,1,0,9.6,31.64a15.24,15.24,0,1,1,11.56,25.2,15.08,15.08,0,0,1-2.29-.18A15.32,15.32,0,0,1,6,40.37a3,3,0,0,0-5.9-.48,21.18,21.18,0,0,0,41.59,7.05,21,21,0,0,0-2.44-16.43A21.59,21.59,0,0,0,37.59,28.23Z" transform="translate(0)"/><path class="cls-3" d="M34.94,15.55c-.59-.64-1.24-1.24-1.86-1.86-.32-.3-.62-.63-1-.92l-1-.84c-.69-.55-1.35-1.14-2.06-1.66A62.47,62.47,0,0,0,17.12,3.83a2.92,2.92,0,0,0-3.77,2,3,3,0,0,0,2,3.77l.28.09c1.5.47,3,.88,4.54,1.39l2.2.88,1.11.44c.36.16.7.36,1.06.53L26.64,14c.69.38,1.34.83,2,1.25l1,.64c.33.22.63.48,1,.71.62.49,1.28,1,1.89,1.47a34.53,34.53,0,0,1,6.36,7.2,28.39,28.39,0,0,1,4,8.86v0a.49.49,0,0,0,1-.17,29.85,29.85,0,0,0-3-9.84A37.38,37.38,0,0,0,34.94,15.55Z" transform="translate(0)"/><path class="cls-4" d="M43.15,19.14c-.37-1.22-.92-2.36-1.41-3.54s-1.11-2.3-1.78-3.39A41.2,41.2,0,0,0,35.5,5.92q-1.27-1.47-2.66-2.84A31.21,31.21,0,0,0,29.78.45L29.52.28a2.26,2.26,0,1,0-2.19,3.95l0,0a27.67,27.67,0,0,1,2.84,1.88c.94.71,1.86,1.46,2.75,2.25a38.15,38.15,0,0,1,4.87,5.25c.77.93,1.4,2,2.08,3s1.26,2.07,1.77,3.17A37.57,37.57,0,0,1,44.3,26.6v0a.31.31,0,0,0,.6-.14A38.73,38.73,0,0,0,43.15,19.14Z" transform="translate(0)"/></svg>