<?xml version="1.0" encoding="UTF-8"?>
<svg width="24px" height="24px" viewBox="0 0 24 24" version="1.1" xmlns="http://www.w3.org/2000/svg" xmlns:xlink="http://www.w3.org/1999/xlink">
    <!-- Generator: Sketch 48.2 (47327) - http://www.bohemiancoding.com/sketch -->
    <title>Fill 126</title>
    <desc>Created with Sketch.</desc>
    <defs>
        <linearGradient x1="0%" y1="0%" x2="100%" y2="100%" id="linearGradient-1">
            <stop stop-color="#F0864E" offset="0%"></stop>
            <stop stop-color="#E84B5E" offset="100%"></stop>
        </linearGradient>
    </defs>
    <g id="Symbol/Midday" stroke="none" stroke-width="1" fill="none" fill-rule="evenodd" transform="translate(-14.000000, 0.000000)">
        <path d="M26.0000364,16.6155189 C23.4502105,16.6155189 21.3840224,14.5493245 21.3840224,12.0002182 C21.3840224,9.45038455 23.4502105,7.38491748 26.0000364,7.38491748 C28.549135,7.38491748 30.6153231,9.45038455 30.6153231,12.0002182 C30.6153231,14.5493245 28.549135,16.6155189 26.0000364,16.6155189 M19.5381986,12.0002182 C19.5381986,8.4372875 22.4378438,5.53836084 26.0000364,5.53836084 C29.562229,5.53836084 32.4611469,8.4372875 32.4611469,12.0002182 C32.4611469,15.5624216 29.562229,18.4620755 26.0000364,18.4620755 C22.4378438,18.4620755 19.5381986,15.5624216 19.5381986,12.0002182 Z M26.0000364,0 C26.5091288,0 26.9229483,0.413093413 26.9229483,0.922914684 L26.9229483,2.76947133 C26.9229483,3.27856532 26.5091288,3.69238601 26.0000364,3.69238601 C25.4902166,3.69238601 25.0763972,3.27856532 25.0763972,2.76947133 L25.0763972,0.922914684 C25.0763972,0.413093413 25.4902166,0 26.0000364,0 Z M34.4844984,3.51420312 C34.8444995,3.87493258 34.8444995,4.45893611 34.4844984,4.81966557 L33.1790399,6.12512803 C32.8183116,6.48513021 32.2343098,6.48513021 31.8735814,6.12512803 C31.5128531,5.76439857 31.5128531,5.18039503 31.8735814,4.81966557 L33.1790399,3.51420312 C33.539041,3.15347366 34.1237701,3.15347366 34.4844984,3.51420312 Z M20.125764,17.8750902 C20.4864924,18.2358196 20.4864924,18.8183686 20.125764,19.1805526 L18.8203055,20.4852878 C18.4603044,20.8460172 17.8755754,20.8460172 17.5155743,20.4852878 C17.1548459,20.1252856 17.1548459,19.5412821 17.5155743,19.1805526 L18.8203055,17.8750902 C19.1810339,17.5129061 19.7657629,17.5143607 20.125764,17.8750902 Z M14,12.0000727 C14,11.4902515 14.4130922,11.0764308 14.9229119,11.0764308 L16.7694629,11.0764308 C17.2785554,11.0764308 17.6916476,11.4902515 17.6916476,12.0000727 C17.6916476,12.509894 17.2785554,12.9229874 16.7694629,12.9229874 L14.9229119,12.9229874 C14.4130922,12.9229874 14,12.509894 14,12.0000727 Z M34.3076252,12.0000727 C34.3076252,11.4902515 34.7207173,11.0764308 35.2312643,11.0764308 L37.0770881,11.0764308 C37.5861806,11.0764308 38,11.4902515 38,12.0000727 C38,12.509894 37.5861806,12.9229874 37.0770881,12.9229874 L35.2312643,12.9229874 C34.7207173,12.9229874 34.3076252,12.509894 34.3076252,12.0000727 Z M17.5142652,3.51420312 C17.8749936,3.15347366 18.4589953,3.15347366 18.8197237,3.51420312 L20.1251822,4.81966557 C20.4851833,5.18039503 20.4851833,5.76439857 20.1251822,6.12512803 C19.7644538,6.48513021 19.1797248,6.48513021 18.8197237,6.12512803 L17.5142652,4.81966557 C17.1535368,4.45893611 17.1535368,3.87493258 17.5142652,3.51420312 Z M31.8751087,17.8737083 C32.2351098,17.5129789 32.8183843,17.5129789 33.1798399,17.8737083 L34.4852984,19.1791708 C34.8460268,19.5399002 34.8460268,20.1239038 34.4852984,20.4846332 C34.1252973,20.8446354 33.5405683,20.8446354 33.1798399,20.4846332 L31.8751087,19.1791708 C31.5129258,18.8184413 31.5143803,18.2344378 31.8751087,17.8737083 Z M26.0000364,20.307614 C26.5091288,20.307614 26.9229483,20.7214347 26.9229483,21.2312559 L26.9229483,23.0770853 C26.9229483,23.5869066 26.5091288,24 26.0000364,24 C25.4902166,24 25.0763972,23.5869066 25.0763972,23.0770853 L25.0763972,21.2312559 C25.0763972,20.7214347 25.4902166,20.307614 26.0000364,20.307614 Z" id="Fill-126" fill="url(#linearGradient-1)"></path>
    </g>
</svg>